<svg width="56" height="56" viewBox="0 0 56 56" fill="none" xmlns="http://www.w3.org/2000/svg">
<circle cx="28" cy="28" r="28" fill="#3E445B"/>
<path d="M44.8012 27.9997C44.801 30.8927 44.0538 33.7367 42.6319 36.2562C41.21 38.7757 39.1615 40.8853 36.6849 42.3807C34.2084 43.8762 31.3876 44.7067 28.4958 44.7919C25.604 44.8772 22.7392 44.2142 20.1788 42.8672L24.9199 38.1179C26.5006 38.5994 28.1721 38.7037 29.8003 38.4225C31.4285 38.1412 32.9682 37.4823 34.2957 36.4985C35.6233 35.5147 36.7017 34.2334 37.4446 32.7575C38.1875 31.2815 38.574 29.652 38.5733 27.9997H44.8012Z" fill="url(#paint0_linear)"/>
<path d="M21.7858 36.5661L17.3503 41.0016C16.4919 40.3002 15.706 39.5143 15.0045 38.6559L19.4565 34.2204C19.7822 34.6704 20.1441 35.093 20.5386 35.4841C20.925 35.8772 21.3421 36.239 21.7858 36.5661Z" fill="url(#paint1_linear)"/>
<path d="M27.9951 11.1993V17.4271C26.3435 17.4277 24.715 17.8152 23.2401 18.5587C21.7652 19.3021 20.485 20.3807 19.5021 21.7081C18.5193 23.0354 17.861 24.5746 17.5803 26.2022C17.2995 27.8298 17.4039 29.5005 17.8852 31.0805L13.1276 35.8299C11.7812 33.2689 11.1186 30.4038 11.204 27.5118C11.2894 24.6197 12.1199 21.7987 13.615 19.3216C15.1102 16.8446 17.2195 14.7955 19.7387 13.3725C22.258 11.9496 25.1018 11.201 27.9951 11.1993V11.1993Z" fill="url(#paint2_linear)"/>
<path d="M38.5791 17.4271V27.9996H32.3595C32.3619 28.9705 32.0358 29.9136 31.4344 30.6758C31.0246 31.1938 30.5022 31.6117 29.9069 31.8979C29.3116 32.1841 28.6589 32.3311 27.9984 32.3277C27.4303 32.3296 26.8679 32.2144 26.3464 31.9891C25.8204 31.7715 25.3424 31.4524 24.9399 31.0498C24.5373 30.6473 24.2182 30.1693 24.0006 29.6433C23.7778 29.121 23.6626 28.5592 23.662 27.9913C23.6642 26.8375 24.1235 25.7316 24.9393 24.9158C25.7552 24.0999 26.8611 23.6406 28.0149 23.6384V17.4271H38.5791Z" fill="url(#paint3_linear)"/>
<defs>
<linearGradient id="paint0_linear" x1="27.8536" y1="39.5297" x2="38.7252" y2="23.7996" gradientUnits="userSpaceOnUse">
<stop stop-color="#FFA300"/>
<stop offset="1" stop-color="#FFD1AA"/>
</linearGradient>
<linearGradient id="paint1_linear" x1="17.1182" y1="38.8746" x2="21.8091" y2="34.2437" gradientUnits="userSpaceOnUse">
<stop stop-color="#FFA300"/>
<stop offset="1" stop-color="#FFD1AA"/>
</linearGradient>
<linearGradient id="paint2_linear" x1="16.4328" y1="28.104" x2="32.2207" y2="17.4742" gradientUnits="userSpaceOnUse">
<stop stop-color="#FFA300"/>
<stop offset="1" stop-color="#FFD1AA"/>
</linearGradient>
<linearGradient id="paint3_linear" x1="28.3117" y1="27.6539" x2="38.6192" y2="17.467" gradientUnits="userSpaceOnUse">
<stop stop-color="#FFA300"/>
<stop offset="1" stop-color="#FFD1AA"/>
</linearGradient>
</defs>
</svg>
