<svg width="19" height="20" viewBox="0 0 19 20" fill="none" xmlns="http://www.w3.org/2000/svg">
<path fill-rule="evenodd" clip-rule="evenodd" d="M4.18 0H4.14212H4.14208C3.62382 -1.64516e-05 3.17671 -3.06424e-05 2.80824 0.0295789C2.41944 0.0608231 2.03249 0.129778 1.65907 0.316368C1.07793 0.606747 0.606747 1.07793 0.316368 1.65907C0.129778 2.03249 0.0608231 2.41944 0.0295789 2.80824C-3.06434e-05 3.17671 -1.64516e-05 3.62382 0 4.14208V4.14212V4.18V15.82V15.8579V15.8579C-1.64516e-05 16.3762 -3.06424e-05 16.8233 0.0295789 17.1918C0.0608231 17.5806 0.129778 17.9675 0.316368 18.3409C0.606747 18.9221 1.07793 19.3933 1.65907 19.6836C2.03249 19.8702 2.41944 19.9392 2.80824 19.9704C3.17672 20 3.62384 20 4.14213 20H4.14215H4.18H9V18H4.18C3.61316 18 3.24717 17.9993 2.96845 17.9769C2.70111 17.9554 2.6017 17.9189 2.55302 17.8945C2.35931 17.7978 2.20225 17.6407 2.10546 17.447C2.08114 17.3983 2.04464 17.2989 2.02315 17.0316C2.00075 16.7528 2 16.3868 2 15.82V4.18C2 3.61317 2.00075 3.24717 2.02315 2.96845C2.04464 2.70111 2.08114 2.6017 2.10546 2.55302C2.20225 2.35931 2.35931 2.20225 2.55302 2.10546C2.6017 2.08114 2.70111 2.04464 2.96845 2.02315C3.24717 2.00075 3.61316 2 4.18 2H9V0H4.18ZM12.3536 4.64645C12.5489 4.45119 12.8655 4.45119 13.0607 4.64645L18.4143 10L13.0607 15.3536C12.8655 15.5488 12.5489 15.5488 12.3536 15.3536L11.6465 14.6464C11.4513 14.4512 11.4513 14.1346 11.6465 13.9393L14.5859 10.9999H5V8.99993H14.5858L11.6465 6.06066C11.4513 5.8654 11.4513 5.54882 11.6465 5.35356L12.3536 4.64645Z" fill="#3E445B"/>
</svg>
