<svg width="120" height="24" viewBox="0 0 120 24" fill="none" xmlns="http://www.w3.org/2000/svg">
<path d="M40.692 21.2337C39.775 21.2523 38.8636 21.088 38.013 20.7506C37.1624 20.4133 36.3902 19.91 35.7431 19.271C35.0959 18.6321 34.5872 17.8708 34.2478 17.0332C33.9083 16.1956 33.7451 15.299 33.768 14.3976C33.774 13.2025 34.0986 12.0298 34.7095 10.9966C35.3203 9.96326 36.196 9.10544 37.2493 8.50865C38.3026 7.91186 39.4967 7.59695 40.7124 7.59531C41.9281 7.59368 43.123 7.90538 44.178 8.49934C45.1984 9.0638 46.0317 9.90546 46.578 10.9235L43.668 12.5986C43.4051 12.0696 42.9872 11.63 42.468 11.3364C41.9229 11.0216 41.3001 10.8604 40.668 10.8704C40.2013 10.8568 39.7367 10.9377 39.3031 11.1082C38.8696 11.2786 38.4764 11.535 38.148 11.8613C37.816 12.1971 37.5566 12.5954 37.3855 13.0323C37.2143 13.4692 37.1349 13.9356 37.152 14.4035C37.1362 14.8668 37.2163 15.3284 37.3875 15.7604C37.5587 16.1923 37.8175 16.5855 38.148 16.9162C38.4764 17.2425 38.8696 17.4989 39.3031 17.6693C39.7367 17.8398 40.2013 17.9207 40.668 17.9071C41.2975 17.9149 41.9182 17.7604 42.468 17.4588C42.9894 17.1734 43.4085 16.7367 43.668 16.2084L46.608 17.8599C46.0303 18.872 45.187 19.7132 44.166 20.2959C43.1164 20.9135 41.9152 21.2377 40.692 21.2337Z" fill="#F8A303"/>
<path d="M56.034 7.59106C56.8875 7.58204 57.7331 7.75324 58.5136 8.0931C59.2941 8.43297 59.9912 8.93357 60.558 9.56108C61.8053 10.8686 62.4798 12.6057 62.436 14.3976C62.4802 16.1879 61.8055 17.9233 60.558 19.2283C59.9931 19.8605 59.2971 20.3665 58.5168 20.7124C57.7365 21.0583 56.8899 21.236 56.034 21.2337C55.2246 21.2758 54.4167 21.127 53.6777 20.7997C52.9387 20.4724 52.2901 19.9761 51.786 19.3522V20.8739H48.402V2.79578H51.786V9.4726C52.2894 8.84795 52.9379 8.3511 53.6771 8.02371C54.4162 7.69633 55.2245 7.54796 56.034 7.59106ZM52.8 17.0165C53.1372 17.3525 53.5417 17.6161 53.9878 17.7907C54.434 17.9654 54.9121 18.0472 55.392 18.031C55.8744 18.0461 56.3549 17.9638 56.8038 17.7893C57.2527 17.6149 57.6605 17.3518 58.002 17.0165C58.3478 16.6728 58.6183 16.2631 58.7968 15.8127C58.9753 15.3623 59.0581 14.8807 59.04 14.3976C59.0572 13.9184 58.9751 13.4406 58.7987 12.9935C58.6223 12.5464 58.3554 12.1391 58.014 11.7965C57.6725 11.4612 57.2647 11.1981 56.8158 11.0236C56.3669 10.8492 55.8864 10.7669 55.404 10.782C54.9221 10.7642 54.4417 10.8452 53.9934 11.0198C53.545 11.1945 53.1386 11.459 52.8 11.7965C52.4564 12.1412 52.1881 12.5513 52.0116 13.0017C51.8352 13.452 51.7543 13.9331 51.774 14.4153C51.7585 14.8944 51.8414 15.3717 52.0177 15.8186C52.194 16.2655 52.46 16.6729 52.8 17.0165Z" fill="#F8A303"/>
<path d="M67.6561 11.6137C67.6561 11.9558 67.8841 12.2035 68.3461 12.4512C68.8907 12.6978 69.4571 12.8953 70.0381 13.041C70.7139 13.2089 71.379 13.4157 72.0301 13.6604C72.702 13.9134 73.2882 14.3466 73.7221 14.9108C74.1977 15.5439 74.4371 16.3187 74.4001 17.1049C74.4297 17.6975 74.3073 18.2878 74.0441 18.8217C73.781 19.3556 73.3855 19.8159 72.8941 20.1602C71.7939 20.9002 70.4824 21.2763 69.1501 21.2337C66.4581 21.2337 64.6221 20.2114 63.6421 18.1666L66.6001 16.5151C66.9841 17.6358 67.8421 18.1902 69.1741 18.1902C70.3741 18.1902 70.9741 17.8245 70.9741 17.0814C70.9741 16.7393 70.7461 16.462 70.2781 16.2438C69.7349 15.9986 69.1707 15.8012 68.5921 15.654C67.9156 15.4815 67.2503 15.2688 66.6001 15.017C65.9385 14.7573 65.3559 14.3348 64.9081 13.7901C64.4264 13.1948 64.1754 12.4506 64.2001 11.6903C64.1754 11.114 64.2923 10.5402 64.5408 10.0177C64.7894 9.49509 65.1623 9.03906 65.6281 8.68814C66.6501 7.93476 67.9034 7.54765 69.1801 7.59106C70.1957 7.5788 71.1975 7.82248 72.0901 8.29885C72.9612 8.76875 73.6805 9.46974 74.1661 10.322L71.2801 11.8732C71.1109 11.4677 70.8183 11.1236 70.4423 10.8881C70.0663 10.6526 69.6254 10.5373 69.1801 10.5579C68.7974 10.5433 68.4191 10.642 68.0941 10.841C67.9585 10.9207 67.8467 11.034 67.7698 11.1697C67.6929 11.3053 67.6537 11.4584 67.6561 11.6137Z" fill="#F8A303"/>
<path d="M87.6 19.2283C86.631 20.1885 85.3932 20.8436 84.0443 21.1098C82.6953 21.3761 81.2963 21.2417 80.0253 20.7236C78.7544 20.2055 77.6691 19.3272 76.9077 18.2006C76.1463 17.074 75.7433 15.7501 75.75 14.3976C75.75 12.5893 76.4807 10.855 77.7815 9.57628C79.0822 8.29759 80.8464 7.57922 82.686 7.57922C84.5255 7.57922 86.2897 8.29759 87.5905 9.57628C88.8912 10.855 89.622 12.5893 89.622 14.3976C89.6413 15.2963 89.4717 16.1891 89.1238 17.0204C88.7758 17.8516 88.2571 18.6033 87.6 19.2283ZM80.142 16.9516C80.4716 17.2803 80.8664 17.539 81.302 17.7115C81.7376 17.884 82.2045 17.9666 82.674 17.9543C83.1451 17.9658 83.6136 17.8828 84.051 17.7104C84.4884 17.538 84.8855 17.2798 85.218 16.9516C85.5554 16.6162 85.8199 16.2168 85.9953 15.7778C86.1707 15.3387 86.2532 14.8691 86.238 14.3976C86.2532 13.9261 86.1707 13.4565 85.9953 13.0175C85.8199 12.5784 85.5554 12.179 85.218 11.8437C84.8855 11.5154 84.4884 11.2572 84.051 11.0848C83.6136 10.9124 83.1451 10.8294 82.674 10.841C82.2045 10.8286 81.7376 10.9112 81.302 11.0837C80.8664 11.2562 80.4716 11.5149 80.142 11.8437C79.8075 12.1806 79.5458 12.5805 79.3725 13.0194C79.1993 13.4583 79.1182 13.9271 79.134 14.3976C79.1158 14.8669 79.1941 15.3349 79.3642 15.7738C79.5343 16.2126 79.7927 16.6132 80.124 16.9516H80.142Z" fill="#3E445B"/>
<path d="M99.2821 7.59107C99.9418 7.57128 100.598 7.68696 101.21 7.9307C101.822 8.17444 102.375 8.54089 102.834 9.00665C103.321 9.53651 103.695 10.1561 103.936 10.8294C104.177 11.5027 104.28 12.2164 104.238 12.929V20.8444H100.854V13.3419C100.879 12.9825 100.829 12.6219 100.707 12.2822C100.586 11.9424 100.395 11.6307 100.146 11.366C99.8937 11.1334 99.5963 10.9531 99.2717 10.8355C98.947 10.718 98.6017 10.6657 98.2561 10.6818C97.8696 10.6654 97.4838 10.7283 97.1233 10.8664C96.7628 11.0045 96.4355 11.2148 96.1621 11.4839C95.5976 12.1525 95.3238 13.0129 95.4001 13.8786V20.8444H92.0161V7.95086H95.4001V9.39593C96.2001 8.19269 97.4941 7.59107 99.2821 7.59107Z" fill="#3E445B"/>
<path d="M109.98 15.766C110.436 17.3822 111.666 18.1843 113.682 18.1843C114.24 18.2195 114.799 18.1209 115.31 17.8969C115.821 17.6729 116.269 17.3303 116.616 16.8985L119.346 18.4439C118.05 20.3038 116.144 21.2337 113.628 21.2337C112.67 21.2777 111.712 21.1287 110.815 20.7961C109.917 20.4634 109.098 19.954 108.408 19.2991C107.759 18.6622 107.249 17.9013 106.911 17.0634C106.572 16.2255 106.412 15.3283 106.44 14.4271C106.414 13.5301 106.574 12.6372 106.908 11.8021C107.242 10.9669 107.744 10.2067 108.384 9.56698C109.032 8.92117 109.809 8.41468 110.666 8.07962C111.523 7.74456 112.442 7.58823 113.364 7.62055C114.253 7.59544 115.137 7.75712 115.958 8.09481C116.779 8.4325 117.516 8.93842 118.122 9.57877C119.368 10.8801 120.042 12.6112 120 14.3976C119.998 14.8568 119.954 15.3148 119.868 15.766H109.98ZM109.932 13.1826H116.616C116.483 12.4039 116.054 11.704 115.416 11.2244C114.819 10.7965 114.097 10.5708 113.358 10.5815C112.549 10.5538 111.754 10.7948 111.102 11.2657C110.494 11.7492 110.08 12.4281 109.932 13.1826Z" fill="#3E445B"/>
<path d="M24.4081 11.997C24.408 14.063 23.8652 16.0938 22.8323 17.893C21.7994 19.6922 20.3114 21.1986 18.5124 22.2665C16.7133 23.3344 14.6643 23.9275 12.5636 23.9883C10.463 24.0492 8.38197 23.5758 6.52209 22.6139L9.96609 19.2224C11.1143 19.5662 12.3285 19.6407 13.5112 19.4399C14.694 19.2391 15.8124 18.7685 16.7768 18.066C17.7411 17.3635 18.5245 16.4485 19.0642 15.3946C19.6038 14.3406 19.8846 13.177 19.8841 11.997H24.4081Z" fill="#3E445B"/>
<path d="M7.69211 18.1135L4.47011 21.2809C3.84654 20.78 3.27568 20.2188 2.76611 19.6058L6.00011 16.4384C6.2367 16.7598 6.49958 17.0616 6.78611 17.3409C7.06684 17.6216 7.36979 17.88 7.69211 18.1135Z" fill="#3E445B"/>
<path d="M12.2044 0V4.44728C11.0046 4.4477 9.82158 4.72443 8.75021 5.2553C7.67884 5.78617 6.7489 6.55641 6.03492 7.50428C5.32095 8.45214 4.84281 9.55126 4.63884 10.7135C4.43487 11.8758 4.51073 13.0689 4.86035 14.1971L1.40435 17.5886C0.426295 15.7598 -0.0550056 13.7139 0.00702986 11.6487C0.0690653 9.58347 0.672336 7.56897 1.75846 5.80014C2.84459 4.0313 4.37679 2.56802 6.20679 1.55191C8.03678 0.535791 10.1026 0.00124479 12.2044 0V0Z" fill="#3E445B"/>
<path d="M19.8901 4.4473V11.9971H15.3721C15.3738 12.6904 15.137 13.3638 14.7001 13.9081C14.4024 14.278 14.0229 14.5765 13.5904 14.7808C13.158 14.9852 12.6839 15.0902 12.2041 15.0877C11.7914 15.0891 11.3829 15.0068 11.0041 14.8459C10.6219 14.6906 10.2747 14.4627 9.98234 14.1752C9.68994 13.8878 9.45809 13.5465 9.30008 13.1708C9.13819 12.7979 9.05452 12.3966 9.05408 11.9912C9.05566 11.1672 9.38931 10.3775 9.98196 9.79493C10.5746 9.21233 11.3779 8.88434 12.2161 8.88278V4.4473H19.8901Z" fill="#3E445B"/>
<path d="M24.4081 3.05176e-05V11.9971H19.8901V4.44732H12.2041V3.05176e-05H24.4081Z" fill="url(#paint0_linear)"/>
<defs>
<linearGradient id="paint0_linear" x1="16.0081" y1="8.234" x2="24.3076" y2="-0.100622" gradientUnits="userSpaceOnUse">
<stop stop-color="#FFA300"/>
<stop offset="1" stop-color="#FFD1AA"/>
</linearGradient>
</defs>
</svg>
