<svg width="20" height="20" viewBox="0 0 20 20" fill="none" xmlns="http://www.w3.org/2000/svg">
<path fill-rule="evenodd" clip-rule="evenodd" d="M7.28 0H7.23939H7.23938C6.2103 -8.70235e-06 5.38024 -1.57207e-05 4.70699 0.0522757C4.01409 0.106094 3.40417 0.21972 2.83564 0.492725C1.81108 0.984711 0.984711 1.81108 0.492725 2.83564C0.21972 3.40417 0.106094 4.01409 0.0522757 4.70699C-1.57216e-05 5.38024 -8.70235e-06 6.2103 0 7.23938V7.23939V7.28V12.72V12.7606V12.7606C-8.70235e-06 13.7897 -1.57207e-05 14.6198 0.0522757 15.293C0.106094 15.9859 0.21972 16.5958 0.492725 17.1644C0.984711 18.1889 1.81108 19.0153 2.83564 19.5073C3.40417 19.7803 4.01409 19.8939 4.70699 19.9477C5.38025 20 6.21032 20 7.23942 20H7.28H12.72H12.7606C13.7897 20 14.6198 20 15.293 19.9477C15.9859 19.8939 16.5958 19.7803 17.1644 19.5073C18.1889 19.0153 19.0153 18.1889 19.5073 17.1644C19.7803 16.5958 19.8939 15.9859 19.9477 15.293C20 14.6198 20 13.7897 20 12.7606V12.72V7.28V7.23942C20 6.21032 20 5.38025 19.9477 4.70699C19.8939 4.01409 19.7803 3.40417 19.5073 2.83564C19.0153 1.81108 18.1889 0.984711 17.1644 0.492725C16.5958 0.21972 15.9859 0.106094 15.293 0.0522757C14.6198 -1.57216e-05 13.7897 -8.70235e-06 12.7606 0H12.7606H12.72H7.28ZM3.70138 2.29564C3.95373 2.17446 4.28601 2.091 4.86187 2.04627C5.44854 2.0007 6.20081 2 7.28 2H12.72C13.7992 2 14.5515 2.0007 15.1381 2.04627C15.714 2.091 16.0463 2.17446 16.2986 2.29564C16.9134 2.59083 17.4092 3.08665 17.7044 3.70138C17.8255 3.95373 17.909 4.28601 17.9537 4.86187C17.9993 5.44854 18 6.20081 18 7.28V12.72C18 13.7992 17.9993 14.5515 17.9537 15.1381C17.909 15.714 17.8255 16.0463 17.7044 16.2986C17.4092 16.9134 16.9134 17.4092 16.2986 17.7044C16.0463 17.8255 15.714 17.909 15.1381 17.9537C14.5515 17.9993 13.7992 18 12.72 18H7.28C6.20081 18 5.44854 17.9993 4.86187 17.9537C4.28601 17.909 3.95373 17.8255 3.70138 17.7044C3.08665 17.4092 2.59083 16.9134 2.29564 16.2986C2.17446 16.0463 2.091 15.714 2.04627 15.1381C2.0007 14.5515 2 13.7992 2 12.72V7.28C2 6.20081 2.0007 5.44854 2.04627 4.86187C2.091 4.28601 2.17446 3.95373 2.29564 3.70138C2.59083 3.08665 3.08665 2.59083 3.70138 2.29564ZM7 6C7 6.55228 6.55228 7 6 7C5.44772 7 5 6.55228 5 6C5 5.44772 5.44772 5 6 5C6.55228 5 7 5.44772 7 6ZM7 10C7 10.5523 6.55228 11 6 11C5.44772 11 5 10.5523 5 10C5 9.4477 5.44772 9 6 9C6.55228 9 7 9.4477 7 10ZM11 6C11 6.55228 10.5523 7 10 7C9.4477 7 9 6.55228 9 6C9 5.44772 9.4477 5 10 5C10.5523 5 11 5.44772 11 6ZM11 10C11 10.5523 10.5523 11 10 11C9.4477 11 9 10.5523 9 10C9 9.4477 9.4477 9 10 9C10.5523 9 11 9.4477 11 10ZM10 15C10.5523 15 11 14.5523 11 14C11 13.4477 10.5523 13 10 13C9.4477 13 9 13.4477 9 14C9 14.5523 9.4477 15 10 15ZM14 7C14.5523 7 15 6.55228 15 6C15 5.44772 14.5523 5 14 5C13.4477 5 13 5.44772 13 6C13 6.55228 13.4477 7 14 7ZM14 11C14.5523 11 15 10.5523 15 10C15 9.4477 14.5523 9 14 9C13.4477 9 13 9.4477 13 10C13 10.5523 13.4477 11 14 11Z" fill="#3E445B"/>
</svg>
