<svg width="24" height="19" viewBox="0 0 24 19" fill="none" xmlns="http://www.w3.org/2000/svg">
<path fill-rule="evenodd" clip-rule="evenodd" d="M15 4.5C15 2.96911 16.0345 2 17 2C17.9655 2 19 2.96911 19 4.5C19 6.03089 17.9655 7 17 7C16.0345 7 15 6.03089 15 4.5ZM17 0C14.6518 0 13 2.16489 13 4.5C13 6.83511 14.6518 9 17 9C19.3482 9 21 6.83511 21 4.5C21 2.16489 19.3482 0 17 0ZM5 8.5C5 6.96911 6.0345 6 7 6C7.96551 6 9 6.96911 9 8.5C9 10.0309 7.96551 11 7 11C6.0345 11 5 10.0309 5 8.5ZM7 4C4.6518 4 3 6.16489 3 8.5C3 10.8351 4.6518 13 7 13C9.34821 13 11 10.8351 11 8.5C11 6.16489 9.34821 4 7 4ZM12.8756 14.983C12.8759 14.9825 12.8762 14.9819 12 14.5C11.1238 14.0181 11.1241 14.0175 11.1244 14.017L11.125 14.0158L11.1264 14.0133L11.1297 14.0075L11.1378 13.9933C11.1439 13.9826 11.1516 13.9696 11.1609 13.9543C11.1793 13.9237 11.2041 13.8843 11.2355 13.8372C11.2984 13.7431 11.3882 13.6182 11.5079 13.473C11.7473 13.1828 12.1083 12.8098 12.615 12.4413C13.6397 11.696 15.2194 11 17.5 11C19.7806 11 21.3603 11.696 22.3851 12.4413C22.8917 12.8098 23.2527 13.1828 23.4921 13.473C23.6118 13.6182 23.7016 13.7431 23.7645 13.8372C23.7959 13.8843 23.8207 13.9237 23.8392 13.9543L23.8498 13.972L23.8622 13.9933L23.8703 14.0075L23.8736 14.0133L23.875 14.0158L23.8756 14.017C23.8759 14.0175 23.8762 14.0181 23 14.5C22.1238 14.9819 22.1241 14.9825 22.1244 14.983L22.1249 14.984L22.1259 14.9858L22.1276 14.9888L22.1296 14.9923L22.1299 14.9928C22.1297 14.9924 22.129 14.9914 22.128 14.9896C22.1243 14.9835 22.1155 14.9692 22.1013 14.948C22.0728 14.9053 22.0229 14.835 21.9493 14.7458C21.802 14.5672 21.5614 14.3152 21.2087 14.0587C20.5147 13.554 19.3444 13 17.5 13C15.6556 13 14.4853 13.554 13.7913 14.0587C13.4386 14.3152 13.198 14.5672 13.0507 14.7458C12.9771 14.835 12.9272 14.9053 12.8987 14.948C12.8845 14.9692 12.8757 14.9835 12.8721 14.9896L12.8704 14.9923L12.8724 14.9888L12.8741 14.9858L12.8751 14.984L12.8756 14.983ZM1 18.5C1.87622 18.9819 1.87593 18.9825 1.87564 18.983L1.87508 18.984L1.87406 18.9858L1.87237 18.9888L1.87038 18.9923L1.87205 18.9896C1.87573 18.9835 1.88452 18.9692 1.89874 18.948C1.9272 18.9053 1.97708 18.835 2.05067 18.7458C2.19798 18.5672 2.43862 18.3152 2.7913 18.0587C3.48532 17.554 4.65562 17 6.5 17C8.34438 17 9.51469 17.554 10.2087 18.0587C10.5614 18.3152 10.802 18.5672 10.9493 18.7458C11.0229 18.835 11.0728 18.9053 11.1013 18.948C11.1155 18.9692 11.1243 18.9835 11.128 18.9896C11.1298 18.9926 11.1303 18.9936 11.1296 18.9923L11.1276 18.9888L11.1259 18.9858L11.1249 18.984L11.1244 18.983C11.1241 18.9825 11.1238 18.9819 12 18.5C12.8762 18.0181 12.8759 18.0175 12.8756 18.017L12.875 18.0158L12.8736 18.0133L12.8703 18.0075L12.8622 17.9933C12.8561 17.9826 12.8484 17.9696 12.8392 17.9543C12.8207 17.9237 12.7959 17.8843 12.7645 17.8372C12.7016 17.7431 12.6118 17.6182 12.4921 17.473C12.2527 17.1828 11.8917 16.8098 11.3851 16.4413C10.3603 15.696 8.78062 15 6.5 15C4.21938 15 2.63969 15.696 1.61496 16.4413C1.10826 16.8098 0.747342 17.1828 0.507927 17.473C0.388163 17.6182 0.298393 17.7431 0.235549 17.8372C0.204107 17.8843 0.179334 17.9237 0.160853 17.9543C0.15161 17.9696 0.143932 17.9826 0.137772 17.9933L0.129662 18.0075L0.126448 18.0133L0.125049 18.0158L0.124401 18.017C0.124092 18.0175 0.123788 18.0181 1 18.5Z" fill="#3E445B"/>
</svg>
